<svg width="25" height="25" viewBox="0 0 25 25" fill="none" xmlns="http://www.w3.org/2000/svg">
<g clip-path="url(#clip0_285_412)">
<path d="M21.8783 -1.18202e-05H3.12829C2.29976 -1.36409e-05 1.50505 0.328666 0.91857 0.913914C0.332092 1.49916 0.00173697 2.29314 0 3.12168V17.1891C0.00173697 18.0176 0.332092 18.8117 0.91857 19.3969C1.50505 19.9822 2.29976 20.3108 3.12829 20.3108H7.8371V24.4163C7.83799 24.5248 7.86877 24.631 7.92606 24.7231C7.98336 24.8153 8.06497 24.8899 8.16189 24.9387C8.25881 24.9875 8.3673 25.0086 8.47545 24.9997C8.58361 24.9909 8.68723 24.9524 8.77493 24.8885L14.8741 20.2977H21.9045C22.7325 20.2977 23.5265 19.9688 24.1119 19.3834C24.6973 18.7979 25.0262 18.0039 25.0262 17.176V3.12168C25.0263 2.70951 24.9446 2.30145 24.7861 1.92099C24.6276 1.54052 24.3953 1.19521 24.1027 0.904988C23.81 0.614764 23.4628 0.385361 23.081 0.230031C22.6992 0.0747011 22.2904 -0.00347541 21.8783 -1.18202e-05ZM14.0609 12.8869C14.0617 12.9383 14.0524 12.9893 14.0333 13.037C14.0143 13.0847 13.9859 13.1281 13.9499 13.1648C13.9139 13.2014 13.8709 13.2305 13.8235 13.2503C13.7762 13.2702 13.7253 13.2804 13.6739 13.2804H6.6435C6.59182 13.2804 6.54065 13.2702 6.49291 13.2504C6.44517 13.2307 6.4018 13.2017 6.36526 13.1651C6.32872 13.1286 6.29974 13.0852 6.27996 13.0375C6.26019 12.9897 6.25 12.9386 6.25 12.8869V12.1065C6.25172 12.0032 6.29395 11.9049 6.36756 11.8325C6.44117 11.7601 6.54026 11.7195 6.6435 11.7196H13.6739C13.7247 11.7196 13.7751 11.7296 13.822 11.749C13.869 11.7685 13.9116 11.7969 13.9475 11.8329C13.9835 11.8688 14.012 11.9115 14.0314 11.9584C14.0509 12.0054 14.0609 12.0557 14.0609 12.1065V12.8869ZM18.75 8.20431C18.7483 8.30641 18.707 8.40386 18.6348 8.47606C18.5626 8.54826 18.4652 8.58958 18.3631 8.59126H6.6435C6.54026 8.59128 6.44117 8.55073 6.36756 8.47834C6.29395 8.40596 6.25172 8.30753 6.25 8.20431V7.44357C6.25 7.3919 6.26019 7.34073 6.27996 7.29299C6.29974 7.24524 6.32872 7.20187 6.36526 7.16534C6.4018 7.1288 6.44517 7.09981 6.49291 7.08003C6.54065 7.06026 6.59182 7.05009 6.6435 7.05009H18.3631C18.4663 7.05181 18.5647 7.09401 18.6371 7.16762C18.7095 7.24123 18.75 7.34034 18.75 7.44357V8.20431Z" fill="#C8C7CC"/>
</g>
<defs>
<clipPath id="clip0_285_412">
<rect width="25" height="25" fill="white"/>
</clipPath>
</defs>
</svg>
