<svg width="30" height="13" viewBox="0 0 30 13" fill="none" xmlns="http://www.w3.org/2000/svg">
<path d="M29.7549 5.12571C29.6378 4.86321 29.4705 4.62719 29.263 4.43149C29.0554 4.23579 28.8116 4.08433 28.5459 3.98599C28.2803 3.88765 27.998 3.84441 27.7158 3.8588C27.4335 3.87318 27.157 3.94491 26.9022 4.06977L20.6796 6.98114C20.2708 7.17 19.8071 7.19372 19.3819 7.04751L19.0582 6.91476C19.3466 6.63945 19.5687 6.29972 19.7071 5.92218C19.8904 5.34316 19.8437 4.7138 19.5769 4.16959C19.3102 3.62537 18.8447 3.2098 18.2807 3.01234L13.0337 1.22177C10.8724 0.481276 8.51996 0.575743 6.42234 1.48726L5.83112 1.74521V1.42089C5.83629 1.33275 5.82308 1.24449 5.79238 1.16193C5.76167 1.07938 5.71417 1.00441 5.65299 0.941977C5.59181 0.879539 5.51835 0.831052 5.43746 0.799715C5.35658 0.768377 5.2701 0.754899 5.18373 0.760175H0.647594C0.561229 0.754899 0.47475 0.768377 0.393863 0.799715C0.312975 0.831052 0.239517 0.879539 0.178339 0.941977C0.11716 1.00441 0.0696516 1.07938 0.0389463 1.16193C0.00824089 1.24449 -0.00496261 1.33275 0.000207634 1.42089V10.6829C-0.00518062 10.7712 0.00786134 10.8596 0.0384693 10.9424C0.0690772 11.0251 0.116553 11.1003 0.177756 11.1629C0.238959 11.2255 0.312492 11.2741 0.393488 11.3055C0.474485 11.3369 0.561097 11.3505 0.647594 11.3452H5.18669C5.27072 11.3504 5.3549 11.3378 5.43391 11.3081C5.51292 11.2785 5.58505 11.2324 5.64575 11.1729C5.70645 11.1134 5.75439 11.0416 5.78655 10.9622C5.81871 10.8828 5.83439 10.7975 5.8326 10.7116C5.99851 10.79 6.17325 10.8472 6.35287 10.8821L13.0943 12.5414C14.2354 12.8575 15.4134 13.0133 16.5958 13.0045C19.2175 13.0315 21.7961 12.3223 24.0496 10.9545L28.9759 7.97673C29.4397 7.69459 29.7793 7.2411 29.9244 6.71029C30.0694 6.17949 30.0087 5.61207 29.7549 5.12571ZM28.2576 6.84537L23.3312 9.82311C21.8595 10.7351 20.2248 11.3393 18.5221 11.6006C16.8195 11.8619 15.083 11.7751 13.4135 11.3452L6.67804 9.62399C6.44338 9.59135 6.22841 9.47258 6.07334 9.28989C5.91828 9.1072 5.83374 8.87311 5.83555 8.63141V3.20089L6.80811 2.54018C8.61049 1.72693 10.646 1.63221 12.5134 2.27469L17.7634 4.06676C17.986 4.16348 18.1707 4.33316 18.2882 4.54899C18.4057 4.76482 18.4494 5.01446 18.4123 5.25845V5.38969C18.3786 5.51859 18.3191 5.63897 18.2376 5.74326C18.1561 5.84756 18.0543 5.93351 17.9386 5.99571C17.823 6.05791 17.696 6.09501 17.5656 6.10468C17.4352 6.11435 17.3043 6.09639 17.1811 6.05192L13.0957 4.6626C12.9335 4.60583 12.756 4.6161 12.6011 4.69122C12.4463 4.76633 12.3264 4.90033 12.2671 5.06453C12.2078 5.22874 12.2138 5.4101 12.2839 5.56983C12.3539 5.72955 12.4825 5.85494 12.642 5.91917L18.8661 8.23468C19.2385 8.38874 19.6381 8.46238 20.0398 8.45095C20.4415 8.43953 20.8365 8.34329 21.1999 8.16831L27.4225 5.25845C27.6375 5.16212 27.8812 5.15678 28.1001 5.2436C28.319 5.33042 28.4953 5.50231 28.5901 5.72156C28.6875 5.91648 28.7073 6.14227 28.6453 6.35172C28.5833 6.56117 28.4444 6.73804 28.2576 6.84537Z" fill="#C8C7CC"/>
</svg>
