<svg width="16" height="16" viewBox="0 0 16 16" fill="none" xmlns="http://www.w3.org/2000/svg">
<path d="M7.53051 1.48369e-07C6.04436 0.000298484 4.59168 0.450336 3.35613 1.29321C2.12059 2.13608 1.15768 3.33394 0.589158 4.73531C0.0206374 6.13668 -0.127963 7.67863 0.162149 9.16619C0.452261 10.6538 1.16806 12.0201 2.21902 13.0925C3.26999 14.1649 4.60893 14.8952 6.06654 15.191C7.52416 15.4867 9.03498 15.3348 10.408 14.7543C11.781 14.1738 12.9545 13.1908 13.7801 11.9297C14.6057 10.6685 15.0464 9.18584 15.0464 7.6691C15.0464 6.66185 14.852 5.66447 14.4743 4.73392C14.0965 3.80336 13.5429 2.95786 12.845 2.2457C12.147 1.53354 11.3185 0.968663 10.4066 0.583343C9.49474 0.198023 8.51744 -0.000197973 7.53051 1.48369e-07ZM6.99546 2.41356H8.06704V4.20413H6.99546V2.41356ZM8.06704 12.9307H6.99546V11.1371H8.06704V12.9307ZM11.91 10.2727H3.15844V9.43402H11.9041L11.91 10.2727ZM11.91 8.09148H3.15844V7.25276H11.9041L11.91 8.09148ZM11.91 5.91021H3.15844V5.06849H11.9041L11.91 5.91021Z" fill="#C8C7CC"/>
</svg>
